<?xml version="1.0" encoding="UTF-8" standalone="no"?>
<svg
   xmlns:dc="http://purl.org/dc/elements/1.1/"
   xmlns:cc="http://creativecommons.org/ns#"
   xmlns:rdf="http://www.w3.org/1999/02/22-rdf-syntax-ns#"
   xmlns:svg="http://www.w3.org/2000/svg"
   xmlns="http://www.w3.org/2000/svg"
   xmlns:sodipodi="http://sodipodi.sourceforge.net/DTD/sodipodi-0.dtd"
   xmlns:inkscape="http://www.inkscape.org/namespaces/inkscape"
   width="146px"
   height="44px"
   viewBox="0 0 146 44"
   version="1.1"
   id="svg30"
   sodipodi:docname="logo.svg"
   inkscape:version="0.92.4 (5da689c313, 2019-01-14)">
  <metadata
     id="metadata34">
    <rdf:RDF>
      <cc:Work
         rdf:about="">
        <dc:format>image/svg+xml</dc:format>
        <dc:type
           rdf:resource="http://purl.org/dc/dcmitype/StillImage" />
      </cc:Work>
    </rdf:RDF>
  </metadata>
  <sodipodi:namedview
     pagecolor="#ffffff"
     bordercolor="#666666"
     borderopacity="1"
     objecttolerance="10"
     gridtolerance="10"
     guidetolerance="10"
     inkscape:pageopacity="0"
     inkscape:pageshadow="2"
     inkscape:window-width="1440"
     inkscape:window-height="832"
     id="namedview32"
     showgrid="false"
     inkscape:zoom="2.609589"
     inkscape:cx="73"
     inkscape:cy="22"
     inkscape:window-x="0"
     inkscape:window-y="0"
     inkscape:window-maximized="0"
     inkscape:current-layer="svg30" />
  <!-- Generator: Sketch 51.3 (57544) - http://www.bohemiancoding.com/sketch -->
  <title
     id="title2">Group 37</title>
  <desc
     id="desc4">Created with Sketch.</desc>
  <defs
     id="defs6" />
  <g
     id="Symbols"
     stroke="none"
     stroke-width="1"
     fill="none"
     fill-rule="evenodd"
     style="fill:#666666">
    <g
       id="header/a"
       transform="translate(-230.000000, -56.000000)"
       fill="#FFFFFF"
       style="fill:#666666">
      <g
         id="Group-7"
         style="fill:#666666">
        <g
           id="Group-37"
           transform="translate(230.000000, 56.000000)"
           style="fill:#666666">
          <path
             d="M54.0430416,0.208468246 C55.2443472,0.450363981 56.4423013,0.709984834 57.6475868,0.931236019 C62.7263759,1.86336872 66.348307,5.11144455 69.8634089,8.53009858 C70.2611908,8.91671469 70.6283902,9.3344019 71.0418824,9.77210806 C71.3028809,9.43345403 71.1660976,9.08187109 71.1677733,8.76594692 C71.1811793,6.22916967 71.1968895,3.69176682 71.160023,1.15540664 C71.1508063,0.522932701 71.2995294,0.308145972 71.9633372,0.340051185 C73.1474663,0.397397156 74.3399742,0.41116019 75.5220086,0.337131754 C76.3192482,0.287292891 76.4964591,0.536278673 76.4912224,1.30992796 C76.4551937,6.80033555 76.4719512,12.2913687 76.4719512,17.7821934 C76.4719512,21.46589 76.4514232,25.1497953 76.4895466,28.8330749 C76.496878,29.5708569 76.3827174,29.8886578 75.543165,29.8294351 C74.3623874,29.7462313 73.1694605,29.7708379 71.9849125,29.8233877 C71.3479168,29.8515393 71.1633745,29.6772076 71.1520631,29.0270085 C71.1084935,26.5642597 71.1334204,24.0933782 70.6195925,21.6612834 C70.4180832,20.707255 70.1832683,19.756563 69.7366801,18.8957479 C67.7469326,15.0614919 64.9488436,11.9222692 61.370901,9.48642085 C60.7433314,9.05914123 59.9264017,8.46378578 59.2881492,8.76052512 C58.7265624,9.02181422 59.0780516,10.0058711 59.0757475,10.6631602 C59.0545911,16.6404872 59.0426514,22.6178142 59.0843357,28.5949327 C59.0910387,29.5602218 58.8222898,29.8869896 57.8438594,29.8281839 C56.522109,29.7487336 55.1907231,29.7745915 53.8658307,29.8225536 C53.2024419,29.8465346 52.9806141,29.6842976 52.9852224,28.9759185 C53.028792,22.0956531 53.0394749,15.2149706 53.04534,8.33449668 C53.0474347,5.62589005 53.0132912,2.91707488 52.9956958,0.208468246 L54.0430416,0.208468246 Z"
             id="Fill-3"
             style="fill:#666666" />
          <path
             d="M139.139592,13.3798161 C137.990863,13.3449915 136.83983,13.3689725 135.689844,13.3689725 C134.57505,13.3689725 133.458579,13.3387355 132.345251,13.3814844 C131.778218,13.4033801 131.649394,13.2019393 131.660496,12.6728967 C131.693173,11.1126692 131.639968,9.55014787 131.681024,7.99012891 C131.739885,5.76051754 133.503196,4.04451754 135.694453,4.02366445 C137.87377,4.00322844 139.675205,5.71568341 139.746215,7.94508626 C139.797116,9.53930427 139.746215,11.1364417 139.778263,12.7314938 C139.788108,13.2242521 139.650278,13.3952474 139.139592,13.3798161 M145.797988,5.87145592 C145.785001,3.41663128 144.038028,1.28356967 141.691345,0.522223697 C141.313672,0.399816114 140.847603,0.600422749 140.553928,0.208384834 L140.134989,0.208384834 L131.337285,0.208384834 L130.499408,0.208384834 C130.394255,0.526185782 130.090315,0.410868246 129.878332,0.477598104 C127.369939,1.2695981 125.642657,3.38806256 125.630926,5.93505782 C125.595735,13.6438161 125.624014,21.3527829 125.604743,29.0617498 C125.603067,29.6669062 125.799339,29.8237213 126.379988,29.8099583 C127.844177,29.7749251 129.312556,29.7478161 130.773394,29.8241384 C131.545078,29.8645934 131.693592,29.6126882 131.687517,28.9051431 C131.65505,25.1551336 131.688355,21.4044986 131.657144,17.6544891 C131.651489,16.9853137 131.818855,16.763437 132.516806,16.7788682 C134.573793,16.8239109 136.633712,16.8374654 138.689652,16.7744891 C139.533185,16.7486313 139.806542,16.9283848 139.792088,17.8315318 C139.733228,21.546091 139.783919,25.26211 139.752499,28.9775033 C139.746215,29.6677403 139.9295,29.8550009 140.633316,29.8230957 C142.130183,29.7544891 143.632496,29.7749251 145.131457,29.8103754 C145.692415,29.8237213 145.832341,29.6375033 145.831084,29.1019962 C145.81307,21.3586218 145.839253,13.6148303 145.797988,5.87145592"
             id="Fill-6"
             style="fill:#666666" />
          <path
             d="M92.8178557,15.0663924 C92.8178557,12.7396057 92.815761,10.412819 92.8186935,8.08603223 C92.8203693,6.74246825 92.2753306,5.65289479 91.2068284,4.86172891 C89.8913621,3.88809858 88.4349231,3.74150142 86.9707337,4.46677156 C85.3760451,5.25626919 84.6914999,6.64216493 84.6858442,8.37734976 C84.676837,11.0861649 84.6776749,13.7949801 84.6854253,16.5037953 C84.6914999,18.482127 84.6047796,20.4694256 84.7614626,22.4369137 C84.9485185,24.7860133 86.8008542,26.2451033 89.1230293,26.0978806 C91.226728,25.9650464 92.8080106,24.1944114 92.8161799,21.9424872 C92.8243492,19.6505251 92.8178557,17.358563 92.8178557,15.0663924 M98.8671154,15.1158142 C98.8671154,17.99771 98.8704669,20.8798142 98.8662775,23.76171 C98.8616692,27.3367621 96.3564181,29.8157763 92.7393047,29.8230749 C90.0886821,29.8282882 87.437431,29.8297479 84.7868083,29.8228664 C81.2807136,29.813691 78.6958643,27.441236 78.6491527,23.958146 C78.5706017,18.0563071 78.5781426,12.1521744 78.6460106,6.25012701 C78.6864382,2.75327393 81.2369346,0.372060664 84.7476376,0.35829763 C87.4330321,0.347662559 90.1188456,0.346411374 92.8048686,0.358923223 C96.4230293,0.375605687 98.862507,2.84148246 98.8662775,6.46970995 C98.869629,9.35181422 98.8671154,12.2339185 98.8671154,15.1158142"
             id="Fill-9"
             style="fill:#666666" />
          <path
             d="M100.984283,15.0052095 C100.984283,10.4533991 101.008791,5.90158863 100.962289,1.35040379 C100.9537,0.502726066 101.209672,0.300659716 102.009634,0.339029384 C103.332642,0.40263128 104.663818,0.404925118 105.986616,0.339237915 C106.885867,0.294612322 107.100992,0.644527014 107.097431,1.4844891 C107.068314,7.73832796 107.081302,13.9927924 107.081721,20.2468398 C107.081721,21.4352569 107.185617,21.5144986 108.282607,21.0000531 C109.803353,20.2868777 110.943075,19.1126408 111.979319,17.8362237 C115.678544,13.2789915 117.317221,8.01859336 117.347385,2.2074654 C117.356811,0.385114692 117.379015,0.385114692 119.242871,0.385114692 C120.394533,0.385114692 121.546613,0.403256872 122.697855,0.376564929 C123.192412,0.365095735 123.446498,0.433493839 123.446079,1.03468815 C123.442099,6.212091 122.925758,11.3350673 120.79797,16.0977024 C117.694266,23.0428209 112.218323,27.2941384 104.85653,29.1717498 C103.913919,29.4119773 102.939468,29.5258351 101.987431,29.7329062 C101.232294,29.897437 100.956424,29.7126787 100.964174,28.8683374 C101.006068,24.2477118 100.984283,19.6262521 100.984283,15.0052095"
             id="Fill-11"
             style="fill:#666666" />
          <path
             d="M108.684327,36.595363 C108.684327,37.0816569 108.678671,37.5683678 108.686841,38.0546616 C108.690402,38.280709 108.612689,38.5980929 108.993713,38.5805763 C110.309389,38.5203109 111.658161,38.8314389 112.933828,38.3309649 C113.755785,38.0085763 114.206143,37.3590028 114.146026,36.4564815 C114.085489,35.549164 113.549877,35.0224152 112.678066,34.7890692 C112.026407,34.6147374 111.365742,34.6282919 110.703819,34.6272493 C108.683908,34.6237043 108.683908,34.6247469 108.684327,36.595363 M112.775888,39.5187564 C113.308987,40.2348512 113.782387,40.8739981 114.259349,41.5104341 C114.714316,42.1178844 115.172634,42.7222066 115.6873,43.4043109 C114.79161,43.6720645 114.173466,43.5277611 113.699228,42.7580739 C113.336009,42.1687659 112.778821,41.6853915 112.480537,41.0718938 C111.794944,39.6588891 110.635742,39.5085384 109.275868,39.6357422 C108.831165,39.6772398 108.662542,39.7840076 108.676577,40.2365194 C108.702341,41.1044246 108.661914,41.9742066 108.692915,42.8416948 C108.710092,43.3261118 108.564511,43.5196284 108.051311,43.5294294 C107.478204,43.5404815 107.458095,43.2383204 107.45977,42.8079128 C107.470453,39.9591735 107.480298,37.1098085 107.45202,34.2612777 C107.446783,33.6986616 107.625461,33.5516474 108.165053,33.5672872 C109.38563,33.602946 110.607673,33.5729175 111.829297,33.5797991 C113.811713,33.5906427 115.116077,34.5398749 115.361994,36.1409744 C115.597647,37.6768038 114.764588,38.7991166 112.775888,39.5187564"
             id="Fill-13"
             style="fill:#666666" />
          <path
             d="M64.0623911,38.4682825 C64.0512892,40.840946 65.6158143,42.5571545 67.8087469,42.5780076 C70.0578172,42.5994863 71.6558574,40.9500076 71.6671687,38.5959033 C71.6782706,36.2595242 70.082744,34.4961877 67.9178803,34.4521877 C65.7373065,34.4081877 64.073074,36.1417043 64.0623911,38.4682825 M72.9235647,38.6323962 C72.8904686,41.5647564 70.6319722,43.7718464 67.7276824,43.7099128 C64.8665432,43.6492303 62.7804399,41.43651 62.8007584,38.4843393 C62.8210769,35.4827469 65.0288818,33.3336284 68.052569,33.3722066 C70.8757943,33.4078654 72.9570798,35.6554104 72.9235647,38.6323962"
             id="Fill-15"
             style="fill:#666666" />
          <path
             d="M135.152305,38.5613498 C135.155656,36.2260133 133.545676,34.4762313 131.371177,34.4524588 C129.194793,34.4286863 127.547527,36.1722123 127.544385,38.5035867 C127.541034,40.8551886 129.13258,42.5678521 131.330331,42.5780701 C133.573117,42.5884967 135.148953,40.9321365 135.152305,38.5613498 M136.413519,38.5010844 C136.419384,41.4713972 134.249074,43.7028853 131.347088,43.7103924 C128.43421,43.7181081 126.279401,41.5033024 126.289036,38.5117194 C126.298881,35.5453687 128.470658,33.3647621 131.408044,33.3720607 C134.283008,33.3789422 136.407863,35.5564209 136.413519,38.5010844"
             id="Fill-17"
             style="fill:#666666" />
          <path
             d="M76.4138026,35.5417194 C76.4138026,38.0555583 76.4182014,40.2964303 76.4096132,42.5373024 C76.4081469,42.9843924 76.60819,43.5465915 75.7703133,43.5290749 C74.9690938,43.5123924 75.2217136,42.9593687 75.2196189,42.572127 C75.2036993,39.8639374 75.2028614,37.1553308 75.222761,34.4469327 C75.2252746,34.1560322 74.9688844,33.6862123 75.507639,33.5952929 C75.9466864,33.5212645 76.3499145,33.5492076 76.6949102,33.9994256 C78.4286864,36.2609422 80.2058227,38.4893024 81.9703908,40.7274635 C82.087903,40.8769801 82.2257337,41.0108569 82.4842187,41.2946673 L82.4842187,34.3683166 C82.4842187,33.9612645 82.3742473,33.5494161 83.0717796,33.5577573 C83.7885831,33.5660986 83.6266634,34.0161081 83.6277108,34.3975109 C83.6344138,37.0364682 83.6448872,39.6756341 83.6159805,42.3141744 C83.6113722,42.7087147 83.9255759,43.2828 83.3352918,43.4898711 C82.7052086,43.7107052 82.4180264,43.1597668 82.0994238,42.7554256 C80.2697108,40.4355204 78.441464,38.1149896 76.4138026,35.5417194"
             id="Fill-19"
             style="fill:#666666" />
          <path
             d="M103.714336,37.1024474 C103.714336,36.1304853 103.742615,35.157272 103.703234,34.1869782 C103.68124,33.6400019 103.936164,33.5786938 104.39176,33.5647223 C104.905378,33.549291 104.94413,33.8039071 104.940778,34.2036607 C104.92821,35.9738787 104.953975,37.7447223 104.930305,39.5147318 C104.895952,42.0813289 103.355097,43.6607412 100.877914,43.710163 C98.3749676,43.760419 96.7362904,42.2733858 96.6233865,39.7165896 C96.5421125,37.8802673 96.6227581,36.037272 96.5919661,34.1976133 C96.5833779,33.6637744 96.8056247,33.5761915 97.2727409,33.5636796 C97.7809131,33.5503336 97.8316046,33.7920209 97.828672,34.1967791 C97.8156849,35.9672057 97.7972516,37.7382578 97.8311857,39.5078502 C97.8701469,41.5495754 98.9882933,42.6243431 100.951648,42.5780493 C102.566445,42.5398882 103.610021,41.5522863 103.694227,39.9138597 C103.742615,38.9790161 103.703234,38.0395848 103.703234,37.1024474 L103.714336,37.1024474 Z"
             id="Fill-21"
             style="fill:#666666" />
          <path
             d="M120.968143,43.5817706 C119.657704,43.6274389 118.509394,43.1939033 117.481948,42.4069081 C117.208381,42.1975431 116.87323,42.0334294 117.277087,41.6074009 C117.570344,41.2983583 117.737291,41.0710597 118.177595,41.4572588 C119.077265,42.2452967 120.167552,42.5872872 121.366553,42.5061687 C122.472969,42.4310976 123.150811,41.8709839 123.231457,41.0347754 C123.336192,39.952709 122.609543,39.5877801 121.757632,39.3375431 C120.925202,39.0933536 120.071405,38.9113062 119.257618,38.6166521 C117.902143,38.1266047 117.286932,37.2507754 117.366321,36.0700739 C117.445291,34.8912493 118.301182,33.8800834 119.56847,33.6006521 C121.02051,33.2809744 122.407405,33.4784531 123.669457,34.3215431 C123.970674,34.5227754 124.288229,34.6754199 123.9248,35.1039507 C123.667991,35.4067374 123.518639,35.6859602 123.040002,35.3201972 C122.207781,34.6848038 121.216783,34.4796095 120.17237,34.6022256 C119.377434,34.6958559 118.75552,35.0685005 118.60554,35.8930313 C118.44802,36.7580171 118.965408,37.2791355 119.730599,37.5312493 C120.553185,37.8025479 121.410751,37.969164 122.23606,38.2346237 C123.978424,38.7955716 124.648097,39.7410502 124.43779,41.2677043 C124.257856,42.5781118 122.995804,43.5348512 121.387081,43.5801024 C121.247575,43.5840645 121.108068,43.580728 120.968143,43.5817706"
             id="Fill-23"
             style="fill:#666666" />
          <path
             d="M142.069709,43.581145 C140.717167,43.6434957 139.553147,43.1626237 138.485064,42.3747943 C138.138811,42.1195526 138.030935,41.918946 138.370484,41.5598559 C138.643003,41.2710408 138.811836,41.1048417 139.201448,41.434946 C140.078914,42.1787754 141.114739,42.5555905 142.281273,42.5128417 C143.404656,42.4715526 144.223262,41.9056 144.31459,41.0816948 C144.438805,39.9554199 143.657486,39.5813156 142.77185,39.3214863 C141.93921,39.0772967 141.083319,38.8981687 140.271626,38.6001782 C138.918246,38.1034578 138.389336,37.2979033 138.459299,36.016273 C138.51816,34.9289934 139.298642,33.9472303 140.484447,33.6429839 C142.00226,33.2540739 143.457024,33.4488417 144.775213,34.3555336 C145.03286,34.5327848 145.364031,34.6741687 145.009609,35.0607848 C144.767881,35.3241592 144.646389,35.7501877 144.133399,35.3450123 C143.272062,34.6658275 142.245663,34.4668891 141.171715,34.6126521 C140.438154,34.7121213 139.842424,35.055363 139.695586,35.8598749 C139.536389,36.7298654 139.988005,37.258491 140.764716,37.5218654 C141.453661,37.7556284 142.166275,37.9199507 142.867577,38.118472 C144.893354,38.6925573 145.745684,39.6495052 145.550039,41.1286142 C145.349158,42.6458844 144.018401,43.5838559 142.069709,43.581145"
             id="Fill-25"
             style="fill:#666666" />
          <path
             d="M85.8755033,37.7374028 C85.9081805,36.4468057 86.7760112,34.7633365 88.7234459,33.8547678 C90.62773,32.9655924 92.5227974,33.16891 94.2435865,34.4478294 C94.5401948,34.6680379 94.9272938,34.851545 94.4809151,35.328872 C94.1298448,35.704436 93.9184904,35.7434313 93.4721116,35.4141611 C91.8242178,34.1984265 90.1291934,34.1358673 88.7406224,35.149327 C87.2967515,36.2036588 86.7257386,38.2076398 87.3533082,40.0174787 C88.1874143,42.4228815 90.9147027,43.3539716 93.0707687,41.9670332 C93.2458849,41.8544265 93.4417386,41.7520379 93.5743326,41.5989763 C93.9532623,41.1612701 94.2444244,41.2832607 94.5860686,41.6588246 C95.0705707,42.1907867 94.4821719,42.3307109 94.2538505,42.5112986 C92.5793541,43.8365118 90.7186396,44.0936303 88.7626166,43.252 C86.9461001,42.4704265 85.8784359,40.6649668 85.8755033,37.7374028"
             id="Fill-27"
             style="fill:#666666" />
          <path
             d="M52.3242425,37.8469649 C52.3684405,36.4018464 53.247373,34.7331829 55.2036055,33.8356664 C57.0785638,32.9750597 58.941373,33.1773346 60.6296944,34.4164246 C60.8808479,34.6005573 61.413109,34.7394389 60.9711291,35.2757801 C60.6190115,35.7034768 60.3760273,35.7595716 59.8869168,35.3973536 C58.2266643,34.1678559 56.4964491,34.1403299 55.0737346,35.2267754 C53.7232869,36.2581687 53.1874648,38.3036474 53.8121019,40.0417517 C54.6793042,42.4546616 57.3843888,43.3596853 59.5389885,41.9548133 C59.7423831,41.8221877 59.9549943,41.6881024 60.1181707,41.5129365 C60.5343859,41.0656379 60.7769512,41.4161782 61.0452812,41.6830976 C61.4263056,42.0622066 61.0356456,42.2319507 60.8215681,42.4127469 C59.1820531,43.7953062 57.3242712,44.0866237 55.3514907,43.3192303 C53.434429,42.5733156 52.3158637,40.7142635 52.3242425,37.8469649"
             id="Fill-29"
             style="fill:#666666" />
          <g
             id="Group-6"
             style="fill:#666666">
            <path
               d="M41.7210815,23.8477081 C38.5813484,34.2542294 26.601598,41.7475754 15.9253742,39.9852815 C7.06734261,38.5226464 1.93911879,31.0242957 4.01391076,22.0301536 C4.1324703,21.5163336 4.16347174,20.9572626 4.66431248,20.3118597 C4.55853056,22.7095469 4.68484046,24.872637 5.2698878,26.9821346 C6.29084046,30.6649972 8.36667977,33.5235374 11.814961,35.3356701 C12.4442063,35.6664 12.714631,35.6113479 13.0428692,34.942381 C15.030103,30.8922957 16.2921547,26.6926938 15.9180428,22.1239924 C15.593575,18.1585706 13.9046253,14.867746 10.8319222,12.3430635 C10.0365679,11.6897365 10.1480055,11.3934142 10.840301,10.8349687 C14.5083154,7.87591659 13.366499,7.94681706 17.8189753,9.513509 C25.9333914,12.3687128 31.8728892,17.8962389 36.2530987,25.1764664 C36.4315664,25.4725801 36.6102436,25.7684853 36.7830557,26.067727 C36.9353397,26.331727 37.079664,26.6001062 37.2947888,26.9879735 C41.8742034,19.8405801 40.7166769,7.39379336 27.7006826,4.55360379 C28.8471073,4.3769782 29.9744703,4.59510142 31.0825621,4.85493081 C39.9546281,6.93502559 44.41674,14.9129972 41.7210815,23.8477081 M38.3806769,4.34694976 C33.3892364,0.73561327 27.6778505,-0.173789573 21.753225,1.08552796 C11.7630126,3.20920569 4.78999397,8.86664645 1.25205997,18.309964 C1.30735983,19.1686938 1.23111306,20.0124095 1.1221891,20.8682199 C1.05180746,21.4212436 0.97283759,21.9730161 0.892191966,22.5245801 C0.865798852,22.700163 0.840243615,22.875746 0.81426944,23.0513289 C0.809032712,23.1013763 0.796883501,23.2062673 0.777821808,23.3674616 C0.698851937,24.2530919 0.595583644,25.1360114 0.555993974,26.0249782 C0.532952367,26.5398408 0.526249354,27.055746 0.545311047,27.5710256 C0.55452769,27.8323147 0.570237877,28.0931867 0.592860545,28.3538502 C0.602077188,28.4499829 0.609408608,28.5263052 0.615483214,28.5888645 C0.617158967,28.5978313 0.619253659,28.6065896 0.621138881,28.6153479 C0.712467432,29.1944379 0.705136011,29.7528834 0.601029842,30.2700398 C1.69131679,34.3578692 3.96782755,37.6864379 7.47559799,40.1629498 C12.2108577,43.5061156 17.5330499,44.37131 23.2035894,43.5884853 C34.0932623,42.0853953 44.3538993,33.0341156 45.7120973,21.6525043 C46.5596095,14.5493194 44.2726253,8.61015355 38.3806769,4.34694976"
               id="Fill-1"
               style="fill:#666666" />
            <path
               d="M16.3408562,12.4309384 C20.4759868,14.2497441 23.9944402,16.6023886 26.8536941,19.8579716 C29.8170542,23.232 31.7751719,27.1092133 32.5939868,31.5425782 C32.7167357,32.2065403 32.592311,32.6281896 32.0365894,33.0377441 C27.5901877,36.3152227 22.6720614,37.7561706 17.150664,36.8982749 C16.7124545,36.8298768 16.0999667,36.8968152 16.5576568,36.0722844 C20.8356453,28.366237 20.4611145,20.6422559 16.5920098,12.9184834 C16.5455076,12.8261043 16.4973297,12.7345592 16.3408562,12.4309384"
               id="Fill-31"
               style="fill:#666666" />
            <path
               d="M38.380635,4.34690806 L34.3661587,5.9826237 C41.0082161,9.06741991 44.0597627,16.0961592 41.7210396,23.8476664 C38.5813065,34.2543962 26.6017656,41.7475336 15.9253323,39.9852398 C7.06730072,38.5226047 1.9390769,31.024254 4.01386887,22.0301118 C4.13263788,21.5162919 4.16342984,20.5401592 4.66427059,19.8949649 L0.770657963,19.671837 C0.440744046,20.6784152 0.289716786,21.4068133 2.09469154e-05,22.7297327 L2.09469154e-05,25.8889744 C0.00421032999,25.9742635 0.00672395983,26.0597611 0.0113322812,26.1448417 C0.0649563845,27.1151355 0.11795208,27.8347754 0.205300717,28.5481592 C0.36554462,28.7856758 0.32344132,29.1055621 0.379579053,29.3626806 C1.36387461,33.8679886 3.71160488,37.5053915 7.4755561,40.1629081 C12.2108158,43.5062825 17.533008,44.3712682 23.2035475,43.5884436 C34.0932204,42.0853536 44.3540669,33.0340739 45.7120554,21.6524626 C46.5595676,14.5492777 44.2725834,8.61011185 38.380635,4.34690806"
               id="Fill-33"
               style="fill:#666666" />
            <path
               d="M38.4941882,4.21803602 C33.7589286,0.874870142 28.4367363,0.00967582938 22.7661968,0.792500474 C11.954656,2.28495545 1.76461004,11.0094673 0.289737733,22.2759697 C0.491456528,22.2373915 0.69631736,22.4227754 0.902435007,22.4227754 C2.0080132,22.4227754 2.95271908,22.9267943 3.58573486,23.7031545 C3.70680803,22.6661308 3.90915524,21.9047848 4.32872195,20.8646332 C8.82330158,9.72158104 19.7751868,3.34283223 30.0837923,4.64406445 C35.4089171,5.31615924 40.8134307,9.58770427 42.0551638,15.1586047 C42.7273504,14.3593062 43.7497693,13.8363109 44.7985813,13.8363109 C44.9709745,13.8363109 45.1377119,13.8525763 45.3017263,13.8763488 C44.1873504,9.89632986 41.9340907,6.64679431 38.4941882,4.21803602"
               id="Fill-35"
               style="fill:#666666" />
          </g>
        </g>
      </g>
    </g>
  </g>
</svg>
